<svg width="64" height="64" viewBox="0 0 64 64" fill="none" xmlns="http://www.w3.org/2000/svg">
  <rect width="64" height="64" rx="16" fill="#0b0c10"/>
  <defs>
    <linearGradient id="logoGradient" x1="10" y1="10" x2="54" y2="54" gradientUnits="userSpaceOnUse">
      <stop stop-color="#7c5cfc"/>
      <stop offset="0.5" stop-color="#3b82f6"/>
      <stop offset="1" stop-color="#6366f1"/>
    </linearGradient>
    <radialGradient id="nodeGradient" cx="0" cy="0" r="1" gradientUnits="userSpaceOnUse" gradientTransform="translate(32 32) scale(16)">
      <stop stop-color="#7c5cfc"/>
      <stop offset="0.5" stop-color="#3b82f6"/>
      <stop offset="1" stop-color="#6366f1"/>
    </radialGradient>
    <filter id="neuralGlow" x="-50%" y="-50%" width="200%" height="200%">
      <feGaussianBlur stdDeviation="2" result="coloredBlur"/>
      <feMerge>
        <feMergeNode in="coloredBlur"/>
        <feMergeNode in="SourceGraphic"/>
      </feMerge>
    </filter>
  </defs>
  <circle cx="32" cy="32" r="12" fill="url(#nodeGradient)" filter="url(#neuralGlow)"/>
  <circle cx="32" cy="16" r="6" fill="url(#nodeGradient)"/>
  <circle cx="48" cy="24" r="5" fill="url(#nodeGradient)"/>
  <circle cx="48" cy="40" r="5" fill="url(#nodeGradient)"/>
  <circle cx="32" cy="48" r="6" fill="url(#nodeGradient)"/>
  <circle cx="16" cy="40" r="5" fill="url(#nodeGradient)"/>
  <circle cx="16" cy="24" r="5" fill="url(#nodeGradient)"/>
  <path d="M32 32 L32 16" stroke="url(#logoGradient)" stroke-width="1.5" stroke-linecap="round" opacity="0.7"/>
  <path d="M32 32 L48 24" stroke="url(#logoGradient)" stroke-width="1.5" stroke-linecap="round" opacity="0.7"/>
  <path d="M32 32 L48 40" stroke="url(#logoGradient)" stroke-width="1.5" stroke-linecap="round" opacity="0.7"/>
  <path d="M32 32 L32 48" stroke="url(#logoGradient)" stroke-width="1.5" stroke-linecap="round" opacity="0.7"/>
  <path d="M32 32 L16 40" stroke="url(#logoGradient)" stroke-width="1.5" stroke-linecap="round" opacity="0.7"/>
  <path d="M32 32 L16 24" stroke="url(#logoGradient)" stroke-width="1.5" stroke-linecap="round" opacity="0.7"/>
</svg>
